<mxfile host="app.diagrams.net" agent="Mozilla/5.0 (Windows NT 10.0; Win64; x64) AppleWebKit/537.36 (KHTML, like Gecko) Chrome/130.0.0.0 Safari/537.36" version="24.8.6">
  <diagram name="Trang-1" id="K1hyFJtoVCz5PD-9tJ2u">
    <mxGraphModel dx="1221" dy="759" grid="1" gridSize="10" guides="1" tooltips="1" connect="1" arrows="1" fold="1" page="1" pageScale="1" pageWidth="827" pageHeight="1169" math="0" shadow="0">
      <root>
        <mxCell id="0" />
        <mxCell id="1" parent="0" />
        <mxCell id="f_7dWLgapNf5e9FygIa6-2" value="&lt;h3&gt;Start&lt;/h3&gt;" style="ellipse;whiteSpace=wrap;html=1;" vertex="1" parent="1">
          <mxGeometry x="130" y="10" width="120" height="80" as="geometry" />
        </mxCell>
        <mxCell id="f_7dWLgapNf5e9FygIa6-3" value="" style="endArrow=classic;html=1;rounded=0;exitX=0.5;exitY=1;exitDx=0;exitDy=0;" edge="1" parent="1" source="f_7dWLgapNf5e9FygIa6-2" target="f_7dWLgapNf5e9FygIa6-4">
          <mxGeometry width="50" height="50" relative="1" as="geometry">
            <mxPoint x="390" y="360" as="sourcePoint" />
            <mxPoint x="340" y="160" as="targetPoint" />
          </mxGeometry>
        </mxCell>
        <mxCell id="f_7dWLgapNf5e9FygIa6-4" value="&lt;h3&gt;Nhập điểm&lt;/h3&gt;" style="shape=parallelogram;perimeter=parallelogramPerimeter;whiteSpace=wrap;html=1;fixedSize=1;" vertex="1" parent="1">
          <mxGeometry x="130" y="160" width="120" height="60" as="geometry" />
        </mxCell>
        <mxCell id="f_7dWLgapNf5e9FygIa6-11" style="edgeStyle=orthogonalEdgeStyle;rounded=0;orthogonalLoop=1;jettySize=auto;html=1;exitX=1;exitY=0.5;exitDx=0;exitDy=0;exitPerimeter=0;" edge="1" parent="1" source="f_7dWLgapNf5e9FygIa6-9" target="f_7dWLgapNf5e9FygIa6-12">
          <mxGeometry relative="1" as="geometry">
            <mxPoint x="230" y="320" as="targetPoint" />
          </mxGeometry>
        </mxCell>
        <mxCell id="f_7dWLgapNf5e9FygIa6-24" style="edgeStyle=orthogonalEdgeStyle;rounded=0;orthogonalLoop=1;jettySize=auto;html=1;exitX=0.5;exitY=1;exitDx=0;exitDy=0;exitPerimeter=0;" edge="1" parent="1" source="f_7dWLgapNf5e9FygIa6-9" target="f_7dWLgapNf5e9FygIa6-25">
          <mxGeometry relative="1" as="geometry">
            <mxPoint x="70" y="460" as="targetPoint" />
          </mxGeometry>
        </mxCell>
        <mxCell id="f_7dWLgapNf5e9FygIa6-9" value="&lt;h3&gt;&lt;b&gt;điểm&amp;lt;4&lt;/b&gt;&lt;/h3&gt;" style="strokeWidth=2;html=1;shape=mxgraph.flowchart.decision;whiteSpace=wrap;" vertex="1" parent="1">
          <mxGeometry x="20" y="280" width="100" height="100" as="geometry" />
        </mxCell>
        <mxCell id="f_7dWLgapNf5e9FygIa6-10" style="edgeStyle=orthogonalEdgeStyle;rounded=0;orthogonalLoop=1;jettySize=auto;html=1;exitX=0;exitY=0.5;exitDx=0;exitDy=0;entryX=0.5;entryY=0;entryDx=0;entryDy=0;entryPerimeter=0;" edge="1" parent="1" source="f_7dWLgapNf5e9FygIa6-4" target="f_7dWLgapNf5e9FygIa6-9">
          <mxGeometry relative="1" as="geometry" />
        </mxCell>
        <mxCell id="f_7dWLgapNf5e9FygIa6-26" style="edgeStyle=orthogonalEdgeStyle;rounded=0;orthogonalLoop=1;jettySize=auto;html=1;exitX=0.5;exitY=1;exitDx=0;exitDy=0;exitPerimeter=0;" edge="1" parent="1" source="f_7dWLgapNf5e9FygIa6-12" target="f_7dWLgapNf5e9FygIa6-27">
          <mxGeometry relative="1" as="geometry">
            <mxPoint x="240" y="430" as="targetPoint" />
          </mxGeometry>
        </mxCell>
        <mxCell id="f_7dWLgapNf5e9FygIa6-12" value="&lt;h3&gt;&lt;b&gt;4&amp;lt;=điểm&amp;lt;=6&lt;/b&gt;&lt;/h3&gt;" style="strokeWidth=2;html=1;shape=mxgraph.flowchart.decision;whiteSpace=wrap;" vertex="1" parent="1">
          <mxGeometry x="190" y="280" width="100" height="100" as="geometry" />
        </mxCell>
        <mxCell id="f_7dWLgapNf5e9FygIa6-16" style="edgeStyle=orthogonalEdgeStyle;rounded=0;orthogonalLoop=1;jettySize=auto;html=1;exitX=1;exitY=0.5;exitDx=0;exitDy=0;exitPerimeter=0;" edge="1" parent="1" source="f_7dWLgapNf5e9FygIa6-13" target="f_7dWLgapNf5e9FygIa6-17">
          <mxGeometry relative="1" as="geometry">
            <mxPoint x="600" y="320" as="targetPoint" />
          </mxGeometry>
        </mxCell>
        <mxCell id="f_7dWLgapNf5e9FygIa6-28" style="edgeStyle=orthogonalEdgeStyle;rounded=0;orthogonalLoop=1;jettySize=auto;html=1;exitX=0.5;exitY=1;exitDx=0;exitDy=0;exitPerimeter=0;" edge="1" parent="1" source="f_7dWLgapNf5e9FygIa6-13" target="f_7dWLgapNf5e9FygIa6-29">
          <mxGeometry relative="1" as="geometry">
            <mxPoint x="414" y="440" as="targetPoint" />
          </mxGeometry>
        </mxCell>
        <mxCell id="f_7dWLgapNf5e9FygIa6-13" value="&lt;h3&gt;&lt;b&gt;6&amp;lt;điểm&amp;lt;=8&lt;/b&gt;&lt;/h3&gt;" style="strokeWidth=2;html=1;shape=mxgraph.flowchart.decision;whiteSpace=wrap;" vertex="1" parent="1">
          <mxGeometry x="364" y="280" width="100" height="100" as="geometry" />
        </mxCell>
        <mxCell id="f_7dWLgapNf5e9FygIa6-15" style="edgeStyle=orthogonalEdgeStyle;rounded=0;orthogonalLoop=1;jettySize=auto;html=1;exitX=1;exitY=0.5;exitDx=0;exitDy=0;exitPerimeter=0;entryX=0;entryY=0.5;entryDx=0;entryDy=0;entryPerimeter=0;" edge="1" parent="1" source="f_7dWLgapNf5e9FygIa6-12" target="f_7dWLgapNf5e9FygIa6-13">
          <mxGeometry relative="1" as="geometry" />
        </mxCell>
        <mxCell id="f_7dWLgapNf5e9FygIa6-18" style="edgeStyle=orthogonalEdgeStyle;rounded=0;orthogonalLoop=1;jettySize=auto;html=1;exitX=1;exitY=0.5;exitDx=0;exitDy=0;exitPerimeter=0;" edge="1" parent="1" source="f_7dWLgapNf5e9FygIa6-17" target="f_7dWLgapNf5e9FygIa6-19">
          <mxGeometry relative="1" as="geometry">
            <mxPoint x="740" y="330" as="targetPoint" />
          </mxGeometry>
        </mxCell>
        <mxCell id="f_7dWLgapNf5e9FygIa6-30" style="edgeStyle=orthogonalEdgeStyle;rounded=0;orthogonalLoop=1;jettySize=auto;html=1;exitX=0.5;exitY=1;exitDx=0;exitDy=0;exitPerimeter=0;" edge="1" parent="1" source="f_7dWLgapNf5e9FygIa6-17" target="f_7dWLgapNf5e9FygIa6-31">
          <mxGeometry relative="1" as="geometry">
            <mxPoint x="590" y="430" as="targetPoint" />
          </mxGeometry>
        </mxCell>
        <mxCell id="f_7dWLgapNf5e9FygIa6-17" value="&lt;h3&gt;&lt;b&gt;8&amp;lt;điểm&amp;lt;=9&lt;/b&gt;&lt;/h3&gt;" style="strokeWidth=2;html=1;shape=mxgraph.flowchart.decision;whiteSpace=wrap;" vertex="1" parent="1">
          <mxGeometry x="540" y="280" width="100" height="100" as="geometry" />
        </mxCell>
        <mxCell id="f_7dWLgapNf5e9FygIa6-32" style="edgeStyle=orthogonalEdgeStyle;rounded=0;orthogonalLoop=1;jettySize=auto;html=1;exitX=0.5;exitY=1;exitDx=0;exitDy=0;exitPerimeter=0;" edge="1" parent="1" source="f_7dWLgapNf5e9FygIa6-19" target="f_7dWLgapNf5e9FygIa6-33">
          <mxGeometry relative="1" as="geometry">
            <mxPoint x="770" y="440" as="targetPoint" />
          </mxGeometry>
        </mxCell>
        <mxCell id="f_7dWLgapNf5e9FygIa6-19" value="&lt;h3&gt;&lt;b&gt;9&amp;lt;điểm&amp;lt;=10&lt;/b&gt;&lt;/h3&gt;" style="strokeWidth=2;html=1;shape=mxgraph.flowchart.decision;whiteSpace=wrap;" vertex="1" parent="1">
          <mxGeometry x="720" y="280" width="100" height="100" as="geometry" />
        </mxCell>
        <mxCell id="f_7dWLgapNf5e9FygIa6-20" value="sai" style="text;html=1;align=center;verticalAlign=middle;resizable=0;points=[];autosize=1;strokeColor=none;fillColor=none;" vertex="1" parent="1">
          <mxGeometry x="130" y="308" width="40" height="30" as="geometry" />
        </mxCell>
        <mxCell id="f_7dWLgapNf5e9FygIa6-21" value="sai" style="text;html=1;align=center;verticalAlign=middle;resizable=0;points=[];autosize=1;strokeColor=none;fillColor=none;" vertex="1" parent="1">
          <mxGeometry x="300" y="308" width="40" height="30" as="geometry" />
        </mxCell>
        <mxCell id="f_7dWLgapNf5e9FygIa6-22" value="sai" style="text;html=1;align=center;verticalAlign=middle;resizable=0;points=[];autosize=1;strokeColor=none;fillColor=none;" vertex="1" parent="1">
          <mxGeometry x="470" y="308" width="40" height="30" as="geometry" />
        </mxCell>
        <mxCell id="f_7dWLgapNf5e9FygIa6-23" value="sai" style="text;html=1;align=center;verticalAlign=middle;resizable=0;points=[];autosize=1;strokeColor=none;fillColor=none;" vertex="1" parent="1">
          <mxGeometry x="650" y="308" width="40" height="30" as="geometry" />
        </mxCell>
        <mxCell id="f_7dWLgapNf5e9FygIa6-40" style="edgeStyle=orthogonalEdgeStyle;rounded=0;orthogonalLoop=1;jettySize=auto;html=1;exitX=0.5;exitY=1;exitDx=0;exitDy=0;entryX=0;entryY=0.5;entryDx=0;entryDy=0;" edge="1" parent="1" source="f_7dWLgapNf5e9FygIa6-25" target="f_7dWLgapNf5e9FygIa6-39">
          <mxGeometry relative="1" as="geometry" />
        </mxCell>
        <mxCell id="f_7dWLgapNf5e9FygIa6-25" value="&lt;h3&gt;&lt;b&gt;in không đạt&lt;/b&gt;&lt;/h3&gt;" style="shape=parallelogram;perimeter=parallelogramPerimeter;whiteSpace=wrap;html=1;fixedSize=1;" vertex="1" parent="1">
          <mxGeometry x="10" y="430" width="120" height="60" as="geometry" />
        </mxCell>
        <mxCell id="f_7dWLgapNf5e9FygIa6-41" style="edgeStyle=orthogonalEdgeStyle;rounded=0;orthogonalLoop=1;jettySize=auto;html=1;exitX=0.5;exitY=1;exitDx=0;exitDy=0;entryX=0;entryY=0;entryDx=0;entryDy=0;" edge="1" parent="1" source="f_7dWLgapNf5e9FygIa6-27" target="f_7dWLgapNf5e9FygIa6-39">
          <mxGeometry relative="1" as="geometry" />
        </mxCell>
        <mxCell id="f_7dWLgapNf5e9FygIa6-27" value="&lt;h3&gt;&lt;b&gt;in trung bình&lt;/b&gt;&lt;/h3&gt;" style="shape=parallelogram;perimeter=parallelogramPerimeter;whiteSpace=wrap;html=1;fixedSize=1;" vertex="1" parent="1">
          <mxGeometry x="180" y="430" width="120" height="60" as="geometry" />
        </mxCell>
        <mxCell id="f_7dWLgapNf5e9FygIa6-42" style="edgeStyle=orthogonalEdgeStyle;rounded=0;orthogonalLoop=1;jettySize=auto;html=1;exitX=0.5;exitY=1;exitDx=0;exitDy=0;entryX=0.5;entryY=0;entryDx=0;entryDy=0;" edge="1" parent="1" source="f_7dWLgapNf5e9FygIa6-29" target="f_7dWLgapNf5e9FygIa6-39">
          <mxGeometry relative="1" as="geometry" />
        </mxCell>
        <mxCell id="f_7dWLgapNf5e9FygIa6-29" value="&lt;h3&gt;&lt;b&gt;in khá&lt;/b&gt;&lt;/h3&gt;" style="shape=parallelogram;perimeter=parallelogramPerimeter;whiteSpace=wrap;html=1;fixedSize=1;" vertex="1" parent="1">
          <mxGeometry x="354" y="430" width="120" height="60" as="geometry" />
        </mxCell>
        <mxCell id="f_7dWLgapNf5e9FygIa6-43" style="edgeStyle=orthogonalEdgeStyle;rounded=0;orthogonalLoop=1;jettySize=auto;html=1;exitX=0.5;exitY=1;exitDx=0;exitDy=0;entryX=1;entryY=0;entryDx=0;entryDy=0;" edge="1" parent="1" source="f_7dWLgapNf5e9FygIa6-31" target="f_7dWLgapNf5e9FygIa6-39">
          <mxGeometry relative="1" as="geometry" />
        </mxCell>
        <mxCell id="f_7dWLgapNf5e9FygIa6-31" value="&lt;h3&gt;&lt;b&gt;in giỏi&lt;/b&gt;&lt;/h3&gt;" style="shape=parallelogram;perimeter=parallelogramPerimeter;whiteSpace=wrap;html=1;fixedSize=1;" vertex="1" parent="1">
          <mxGeometry x="530" y="430" width="120" height="60" as="geometry" />
        </mxCell>
        <mxCell id="f_7dWLgapNf5e9FygIa6-44" style="edgeStyle=orthogonalEdgeStyle;rounded=0;orthogonalLoop=1;jettySize=auto;html=1;exitX=0.5;exitY=1;exitDx=0;exitDy=0;entryX=1;entryY=0.5;entryDx=0;entryDy=0;" edge="1" parent="1" source="f_7dWLgapNf5e9FygIa6-33" target="f_7dWLgapNf5e9FygIa6-39">
          <mxGeometry relative="1" as="geometry" />
        </mxCell>
        <mxCell id="f_7dWLgapNf5e9FygIa6-33" value="&lt;h3&gt;&lt;b&gt;in xuất sắc&lt;/b&gt;&lt;/h3&gt;" style="shape=parallelogram;perimeter=parallelogramPerimeter;whiteSpace=wrap;html=1;fixedSize=1;" vertex="1" parent="1">
          <mxGeometry x="710" y="430" width="120" height="60" as="geometry" />
        </mxCell>
        <mxCell id="f_7dWLgapNf5e9FygIa6-34" value="đúng" style="text;html=1;align=center;verticalAlign=middle;resizable=0;points=[];autosize=1;strokeColor=none;fillColor=none;" vertex="1" parent="1">
          <mxGeometry x="5" y="378" width="50" height="30" as="geometry" />
        </mxCell>
        <mxCell id="f_7dWLgapNf5e9FygIa6-35" value="đúng" style="text;html=1;align=center;verticalAlign=middle;resizable=0;points=[];autosize=1;strokeColor=none;fillColor=none;" vertex="1" parent="1">
          <mxGeometry x="175" y="388" width="50" height="30" as="geometry" />
        </mxCell>
        <mxCell id="f_7dWLgapNf5e9FygIa6-36" value="đúng" style="text;html=1;align=center;verticalAlign=middle;resizable=0;points=[];autosize=1;strokeColor=none;fillColor=none;" vertex="1" parent="1">
          <mxGeometry x="355" y="378" width="50" height="30" as="geometry" />
        </mxCell>
        <mxCell id="f_7dWLgapNf5e9FygIa6-37" value="đúng" style="text;html=1;align=center;verticalAlign=middle;resizable=0;points=[];autosize=1;strokeColor=none;fillColor=none;" vertex="1" parent="1">
          <mxGeometry x="525" y="388" width="50" height="30" as="geometry" />
        </mxCell>
        <mxCell id="f_7dWLgapNf5e9FygIa6-38" value="đúng" style="text;html=1;align=center;verticalAlign=middle;resizable=0;points=[];autosize=1;strokeColor=none;fillColor=none;" vertex="1" parent="1">
          <mxGeometry x="715" y="388" width="50" height="30" as="geometry" />
        </mxCell>
        <mxCell id="f_7dWLgapNf5e9FygIa6-39" value="&lt;h3&gt;&lt;b&gt;End&lt;/b&gt;&lt;/h3&gt;" style="ellipse;whiteSpace=wrap;html=1;" vertex="1" parent="1">
          <mxGeometry x="355" y="600" width="120" height="80" as="geometry" />
        </mxCell>
      </root>
    </mxGraphModel>
  </diagram>
</mxfile>
